<svg width="341" height="341" viewBox="0 0 341 341" fill="none" xmlns="http://www.w3.org/2000/svg">
<path d="M191.621 235.05C161.231 252.82 167.541 285.13 171.911 300.79C174.151 300.79 176.421 300.72 178.721 300.56C213.071 298.16 246.461 270.23 254.891 232.57C258.021 218.56 257.301 203.44 253.541 187.78C248.771 214.12 224.871 215.6 191.631 235.04L191.621 235.05Z" fill="url(#paint0_linear_608_178)"/>
<path d="M91.6808 175.94C86.5808 187.23 85.4608 193.04 84.0808 201.45C76.6608 246.36 108.021 294.29 160.511 300.19C131.701 265.8 116.501 222.24 166.981 162.57C198.831 124.93 199.981 88.5 173.131 40C175.421 108.24 96.0508 129.05 108.141 200.82C98.5508 196.14 91.6908 175.94 91.6908 175.94H91.6808Z" fill="url(#paint1_linear_608_178)"/>
<path d="M171.921 300.79C167.551 285.13 161.231 252.83 191.631 235.03C224.881 215.6 248.791 214.13 253.561 187.78C257.191 242.22 182.201 237.85 171.921 300.79Z" fill="url(#paint2_linear_608_178)"/>
<path d="M154.921 249.93C165.571 210.54 229.681 201.88 239.831 171.1C246.881 149.74 234.351 123.78 221.991 111.91C234.971 169.75 136.851 184.53 154.931 249.93H154.921Z" fill="url(#paint3_linear_608_178)"/>
<path d="M108.13 200.76C108.13 200.76 108.15 200.8 108.16 200.82C118.01 147.98 198.73 141.45 190.48 84.71C187.83 70.81 182.03 56.08 173.14 40.01C175.43 108.23 96.1103 129.05 108.14 200.76H108.13Z" fill="url(#paint4_linear_608_178)"/>
<path d="M160.501 300.2C108.031 294.28 76.661 246.36 84.091 201.45C85.481 193.03 86.611 187.22 91.701 175.94C91.701 175.94 98.571 196.13 108.161 200.82C103.181 227.48 110.691 273.78 160.501 300.2Z" fill="url(#paint5_linear_608_178)"/>
<defs>
<linearGradient id="paint0_linear_608_178" x1="212.531" y1="241.76" x2="212.531" y2="304.96" gradientUnits="userSpaceOnUse">
<stop stop-color="#5A5A5A"/>
<stop offset="0.23" stop-color="#4A4A4A"/>
<stop offset="0.68" stop-color="#212121"/>
<stop offset="1"/>
</linearGradient>
<linearGradient id="paint1_linear_608_178" x1="125.301" y1="239.44" x2="180.391" y2="144.03" gradientUnits="userSpaceOnUse">
<stop stop-color="#464646"/>
<stop offset="0.29" stop-color="#363636"/>
<stop offset="0.84" stop-color="#0D0D0D"/>
<stop offset="1"/>
</linearGradient>
<linearGradient id="paint2_linear_608_178" x1="210.951" y1="255.04" x2="210.951" y2="223.86" gradientUnits="userSpaceOnUse">
<stop stop-color="#5A5A5A"/>
<stop offset="0.23" stop-color="#4A4A4A"/>
<stop offset="0.68" stop-color="#212121"/>
<stop offset="1"/>
</linearGradient>
<linearGradient id="paint3_linear_608_178" x1="197.281" y1="164.22" x2="197.281" y2="234.44" gradientUnits="userSpaceOnUse">
<stop stop-color="#5A5A5A"/>
<stop offset="0.23" stop-color="#4A4A4A"/>
<stop offset="0.68" stop-color="#212121"/>
<stop offset="1"/>
</linearGradient>
<linearGradient id="paint4_linear_608_178" x1="148.97" y1="105.35" x2="148.97" y2="287.63" gradientUnits="userSpaceOnUse">
<stop stop-color="#5A5A5A"/>
<stop offset="0.23" stop-color="#4A4A4A"/>
<stop offset="0.68" stop-color="#212121"/>
<stop offset="1"/>
</linearGradient>
<linearGradient id="paint5_linear_608_178" x1="121.751" y1="109.62" x2="121.751" y2="283.75" gradientUnits="userSpaceOnUse">
<stop stop-color="#5A5A5A"/>
<stop offset="0.23" stop-color="#4A4A4A"/>
<stop offset="0.68" stop-color="#212121"/>
<stop offset="1"/>
</linearGradient>
</defs>
</svg>
