<?xml version="1.0" encoding="UTF-8"?>
<svg xmlns="http://www.w3.org/2000/svg" viewBox="1412 623 76 76">
  <path d="M1449.84508,689.39447c-15.80858,0 -28.62396,-12.81538 -28.62396,-28.62396c0,-15.80858 12.81538,-28.62396 28.62396,-28.62396c15.80858,0 28.62396,12.81538 28.62396,28.62396c0,15.80858 -12.81538,28.62396 -28.62396,28.62396zM1449.84508,625.54102c-19.45671,0 -35.22949,15.77278 -35.22949,35.22949c0,19.45671 15.77278,35.22949 35.22949,35.22949c19.45671,0 35.22949,-15.77278 35.22949,-35.22949c0,-19.45671 -15.77278,-35.22949 -35.22949,-35.22949zM1466.48276,666.08245c0.61927,-0.57798 0.97707,-1.38991 0.97707,-2.24313c0,-1.69267 -1.37615,-3.06882 -3.06882,-3.06882h-7.9404v-13.21106c0,-2.43579 -1.9679,-4.40369 -4.40369,-4.40369h-4.40369c-2.43579,0 -4.40369,1.9679 -4.40369,4.40369v13.21106h-7.9404c-1.69267,0 -3.06882,1.37615 -3.06882,3.06882c0,0.85321 0.3578,1.66514 0.97707,2.24313l14.73859,13.74776c0.52294,0.48165 1.19725,0.75688 1.89909,0.75688c0.70184,0 1.38991,-0.27523 1.89909,-0.75688z"/>
</svg>
