<?xml version="1.0" encoding="UTF-8"?>
<svg height="600" width="800" xmlns="http://www.w3.org/2000/svg" xmlns:xlink="http://www.w3.org/1999/xlink">
    <g id="Notes" font-family="'LucidaGrande', 'Lucida Grande', sans-serif" font-size="13">
        <rect fill="white" height="600.0" width="800.0" x="0.0" y="0.0" />
        <g font-size="13">
            <text x="18.0" y="176.0">Small</text>
            <text x="18.0" y="376.0">Medium</text>
            <text x="18.0" y="576.0">Large</text>
        </g>
        <g font-size="9">
            <text x="250.0" y="30.0">Ultralight</text>
            <text x="450.0" y="30.0">Regular</text>
            <text x="650.0" y="30.0">Black</text>
            <text id="template-version" fill="#505050" text-anchor="end" x="785.0" y="575.0">Template v.3.0</text>
            <a href="https://wangchujiang.com/#/app">
                <text fill="#505050" text-anchor="end" x="785.0" y="590.0">https://wangchujiang.com/#/app</text>
            </a>
        </g>
    </g>
    <g id="Guides" stroke="rgb(39, 170, 225)" stroke-width="0.5">
        <path id="Capline-S" d="M18,76 l800,0" />
        <path id="H-reference" d="M85,145.755 L87.685,145.755 L113.369,79.287 L114.052,79.287 L114.052,76 L112.148,76 L85,145.755 Z M95.693,121.536 L130.996,121.536 L130.263,119.313 L96.474,119.313 L95.693,121.536 Z M139.15,145.755 L141.787,145.755 L114.638,76 L113.466,76 L113.466,79.287 L139.15,145.755 Z" stroke="none" />
        <path id="Baseline-S" d="M18,146 l800,0" />
        <path id="left-margin-Ultralight-S" d="M219.734,56 l0,110" />
        <path id="right-margin-Ultralight-S" d="M310.266,56 l0,110" />
        <path id="left-margin-Regular-S" d="M419.734,56 l0,110" />
        <path id="right-margin-Regular-S" d="M510.266,56 l0,110" />
        <path id="left-margin-Black-S" d="M619.734,56 l0,110" />
        <path id="right-margin-Black-S" d="M710.266,56 l0,110" />
        <path id="Capline-M" d="M18,276 l800,0" />
        <path id="Baseline-M" d="M18,346 l800,0" />
        <path id="Capline-L" d="M18,476 l800,0" />
        <path id="Baseline-L" d="M18,546 l800,0" />
    </g>
    <g id="Symbols">
        <g id="Ultralight-S">
            <path d="M300.222,143.425 C300.222,144.802 299.112,145.956 297.692,145.956 L267.508,145.956 C266.132,145.956 264.978,144.846 264.978,143.425 L264.978,136.545 C265.111,128.112 265.999,120.033 267.863,116.349 C268.973,114.129 270.837,112.931 272.968,112.309 C277.007,111.111 284.02,111.91 287.039,111.777 C287.039,111.777 296.094,112.132 296.094,107.027 C296.094,101.923 292.055,103.21 292.055,103.21 C287.616,103.343 284.198,103.032 282.023,102.145 C278.339,100.68 278.205,98.061 278.205,97.173 C278.028,86.919 262.892,85.677 249.575,88.251 C235.016,91.003 249.753,111.91 249.753,139.786 L249.753,143.514 C249.753,144.89 248.599,146 247.223,146 L232.264,146 C230.888,146 229.734,144.89 229.734,143.47 L229.734,79.551 C229.734,78.175 230.843,77.021 232.264,77.021 L246.335,77.021 C247.711,77.021 248.865,78.131 248.865,79.551 C248.865,81.637 251.173,82.747 252.86,81.549 C257.92,77.909 264.401,76 271.68,76 C287.926,76 300.266,85.499 300.266,106.495 L300.266,143.425 L300.222,143.425 Z M273.234,98.993 C273.234,96.019 270.837,93.622 267.863,93.622 C264.889,93.622 262.492,96.019 262.492,98.993 C262.492,101.967 264.889,104.364 267.863,104.364 C270.837,104.364 273.234,101.967 273.234,98.993 Z" />
        </g>
        <g id="Regular-S">
            <path d="M500.222,143.425 C500.222,144.802 499.112,145.956 497.692,145.956 L467.508,145.956 C466.132,145.956 464.978,144.846 464.978,143.425 L464.978,136.545 C465.111,128.112 465.999,120.033 467.863,116.349 C468.973,114.129 470.837,112.931 472.968,112.309 C477.007,111.111 484.02,111.91 487.039,111.777 C487.039,111.777 496.094,112.132 496.094,107.027 C496.094,101.923 492.055,103.21 492.055,103.21 C487.616,103.343 484.198,103.032 482.023,102.145 C478.339,100.68 478.205,98.061 478.205,97.173 C478.028,86.919 462.892,85.677 449.575,88.251 C435.016,91.003 449.753,111.91 449.753,139.786 L449.753,143.514 C449.753,144.89 448.599,146 447.223,146 L432.264,146 C430.888,146 429.734,144.89 429.734,143.47 L429.734,79.551 C429.734,78.175 430.843,77.021 432.264,77.021 L446.335,77.021 C447.711,77.021 448.865,78.131 448.865,79.551 C448.865,81.637 451.173,82.747 452.86,81.549 C457.92,77.909 464.401,76 471.68,76 C487.926,76 500.266,85.499 500.266,106.495 L500.266,143.425 L500.222,143.425 Z M473.234,98.993 C473.234,96.019 470.837,93.622 467.863,93.622 C464.889,93.622 462.492,96.019 462.492,98.993 C462.492,101.967 464.889,104.364 467.863,104.364 C470.837,104.364 473.234,101.967 473.234,98.993 Z" />
        </g>
        <g id="Black-S">
            <path d="M700.222,143.425 C700.222,144.802 699.112,145.956 697.692,145.956 L667.508,145.956 C666.132,145.956 664.978,144.846 664.978,143.425 L664.978,136.545 C665.111,128.112 665.999,120.033 667.863,116.349 C668.973,114.129 670.837,112.931 672.968,112.309 C677.007,111.111 684.02,111.91 687.039,111.777 C687.039,111.777 696.094,112.132 696.094,107.027 C696.094,101.923 692.055,103.21 692.055,103.21 C687.616,103.343 684.198,103.032 682.023,102.145 C678.339,100.68 678.205,98.061 678.205,97.173 C678.028,86.919 662.892,85.677 649.575,88.251 C635.016,91.003 649.753,111.91 649.753,139.786 L649.753,143.514 C649.753,144.89 648.599,146 647.223,146 L632.264,146 C630.888,146 629.734,144.89 629.734,143.47 L629.734,79.551 C629.734,78.175 630.843,77.021 632.264,77.021 L646.335,77.021 C647.711,77.021 648.865,78.131 648.865,79.551 C648.865,81.637 651.173,82.747 652.86,81.549 C657.92,77.909 664.401,76 671.68,76 C687.926,76 700.266,85.499 700.266,106.495 L700.266,143.425 L700.222,143.425 Z M673.234,98.993 C673.234,96.019 670.837,93.622 667.863,93.622 C664.889,93.622 662.492,96.019 662.492,98.993 C662.492,101.967 664.889,104.364 667.863,104.364 C670.837,104.364 673.234,101.967 673.234,98.993 Z" />
        </g>
    </g>
</svg>