<svg width="1024" height="1024" viewBox="0 0 1024 1024" fill="none" xmlns="http://www.w3.org/2000/svg">
<rect width="1024" height="1024" fill="url(#paint0_linear_2_3)"/>
<g filter="url(#filter0_d_2_3)">
<path d="M529.791 822.909C425.881 828.108 329.211 767.102 293.169 670.553C285.545 650.13 280.433 628.302 279.288 605.429C272.887 477.473 373.579 368.93 373.579 368.93C373.579 368.93 368.377 411.091 374.695 446.442C381.012 481.793 398.824 502.797 398.824 502.797C398.824 502.797 383.82 447.544 398.168 409.277C414.683 365.233 448.51 343.492 459.947 304.007C473.11 258.563 447.437 207.762 447.437 207.762C447.437 207.762 524.78 232.986 583.367 305.131C649.813 386.955 613.377 498.478 613.377 498.478C613.377 498.478 617.662 467.963 647.869 441.902C678.077 415.841 663.443 378.499 663.443 378.499C663.443 378.499 753.126 468.486 758.777 581.442C760.311 612.106 752.985 643.477 741.499 672.908C707.535 759.925 623.902 818.201 529.791 822.909Z" fill="#DD5D00"/>
<g filter="url(#filter1_d_2_3)">
<path d="M528.012 780.941C446.527 785.017 370.722 737.213 342.462 661.556C336.483 645.552 332.475 628.447 331.578 610.523C326.562 510.253 340.169 448.664 340.169 448.664C340.169 448.664 374.527 473.465 379.48 501.167C384.433 528.869 404.832 541.164 404.832 541.164C404.832 541.164 401.692 478.598 430.002 444.17C452.067 417.336 484.922 408.41 482.45 359.016C480.405 318.133 498.132 272.4 498.132 272.4C498.132 272.4 555.731 325.571 578.025 369.073C610.836 433.098 605.48 550.932 605.48 550.932C605.48 550.932 603.593 540.413 627.282 519.99C650.972 499.567 660.515 450.793 660.515 450.793C660.515 450.793 703.157 503.197 707.586 591.713C708.788 615.742 703.042 640.325 694.034 663.389C667.397 731.58 601.812 777.248 528.012 780.941Z" fill="#FF7A00"/>
</g>
<g filter="url(#filter2_d_2_3)">
<path d="M404.983 644.202C402.118 586.925 438.073 548.09 460.427 523.212C500.231 478.903 490.386 431.245 490.386 431.245C490.386 431.245 576.052 497.338 591.874 554.921C607.001 609.996 577.504 642.508 577.504 642.508C577.504 642.508 591.693 636.234 600.191 625.838C611.016 612.599 614.366 597.048 614.366 597.048C614.366 597.048 619.73 608.324 615.423 648.036C612.362 676.262 598.772 697.951 582.366 714.234C542.493 753.806 477.205 753.435 437.296 713.947C420.195 697.03 406.486 674.236 404.983 644.202Z" fill="#FFB800"/>
</g>
<path d="M400.565 194.751C400.565 194.751 433.691 213.19 434.942 250.427C435.605 270.094 426.251 286.401 419.714 304.277C413.875 320.243 413.749 344.093 413.749 344.093C413.749 344.093 390.805 326.501 386.38 285.156C384.643 268.931 392.362 248.807 396.197 234.483C402.132 212.304 400.565 194.751 400.565 194.751Z" fill="#DD5D00"/>
<path d="M544.423 223.909C544.423 223.909 556.068 202.499 544.049 181.821C537.702 170.899 527.078 165.246 517.445 157.773C508.84 151.097 500.64 138.172 500.64 138.172C500.64 138.172 494.218 155.623 505.92 179.626C510.512 189.045 521.552 197.335 528.512 203.806C539.287 213.826 544.423 223.909 544.423 223.909Z" fill="#DD5D00"/>
<path d="M642.775 363.184C642.775 363.184 668.647 335.47 658.288 299.575C652.817 280.615 632.059 269.074 618.166 255.912C604.005 242.499 596.536 217.355 596.536 217.355C596.536 217.355 583.019 235.465 593.762 268.692C600.667 290.048 619.621 304.822 627.723 317.312C640.267 336.643 642.775 363.184 642.775 363.184Z" fill="#DD5D00"/>
</g>
<defs>
<filter id="filter0_d_2_3" x="274.996" y="138.172" width="487.984" height="693.045" filterUnits="userSpaceOnUse" color-interpolation-filters="sRGB">
<feFlood flood-opacity="0" result="BackgroundImageFix"/>
<feColorMatrix in="SourceAlpha" type="matrix" values="0 0 0 0 0 0 0 0 0 0 0 0 0 0 0 0 0 0 127 0" result="hardAlpha"/>
<feOffset dy="4"/>
<feGaussianBlur stdDeviation="2"/>
<feComposite in2="hardAlpha" operator="out"/>
<feColorMatrix type="matrix" values="0 0 0 0 0 0 0 0 0 0 0 0 0 0 0 0 0 0 0.25 0"/>
<feBlend mode="normal" in2="BackgroundImageFix" result="effect1_dropShadow_2_3"/>
<feBlend mode="normal" in="SourceGraphic" in2="effect1_dropShadow_2_3" result="shape"/>
</filter>
<filter id="filter1_d_2_3" x="315.468" y="261.4" width="407.276" height="538.783" filterUnits="userSpaceOnUse" color-interpolation-filters="sRGB">
<feFlood flood-opacity="0" result="BackgroundImageFix"/>
<feColorMatrix in="SourceAlpha" type="matrix" values="0 0 0 0 0 0 0 0 0 0 0 0 0 0 0 0 0 0 127 0" result="hardAlpha"/>
<feOffset dy="4"/>
<feGaussianBlur stdDeviation="7.5"/>
<feComposite in2="hardAlpha" operator="out"/>
<feColorMatrix type="matrix" values="0 0 0 0 0.682135 0 0 0 0 0.283399 0 0 0 0 0 0 0 0 1 0"/>
<feBlend mode="normal" in2="BackgroundImageFix" result="effect1_dropShadow_2_3"/>
<feBlend mode="normal" in="SourceGraphic" in2="effect1_dropShadow_2_3" result="shape"/>
</filter>
<filter id="filter2_d_2_3" x="386.822" y="417.245" width="248.275" height="348.493" filterUnits="userSpaceOnUse" color-interpolation-filters="sRGB">
<feFlood flood-opacity="0" result="BackgroundImageFix"/>
<feColorMatrix in="SourceAlpha" type="matrix" values="0 0 0 0 0 0 0 0 0 0 0 0 0 0 0 0 0 0 127 0" result="hardAlpha"/>
<feOffset dy="4"/>
<feGaussianBlur stdDeviation="9"/>
<feComposite in2="hardAlpha" operator="out"/>
<feColorMatrix type="matrix" values="0 0 0 0 0.670833 0 0 0 0 0.32636 0 0 0 0 0.00838542 0 0 0 1 0"/>
<feBlend mode="normal" in2="BackgroundImageFix" result="effect1_dropShadow_2_3"/>
<feBlend mode="normal" in="SourceGraphic" in2="effect1_dropShadow_2_3" result="shape"/>
</filter>
<linearGradient id="paint0_linear_2_3" x1="0" y1="0" x2="1024" y2="1024" gradientUnits="userSpaceOnUse">
<stop stop-color="#FFFCF0"/>
<stop offset="1" stop-color="#A3B7BB" stop-opacity="0.78"/>
</linearGradient>
</defs>
</svg>
