<?xml version="1.0" encoding="UTF-8"?>
<svg height="600" width="800" xmlns="http://www.w3.org/2000/svg" xmlns:xlink="http://www.w3.org/1999/xlink">
    <g id="Notes" font-family="'LucidaGrande', 'Lucida Grande', sans-serif" font-size="13">
        <rect fill="white" height="600.0" width="800.0" x="0.0" y="0.0" />
        <g font-size="13">
            <text x="18.0" y="176.0">Small</text>
            <text x="18.0" y="376.0">Medium</text>
            <text x="18.0" y="576.0">Large</text>
        </g>
        <g font-size="9">
            <text x="250.0" y="30.0">Ultralight</text>
            <text x="450.0" y="30.0">Regular</text>
            <text x="650.0" y="30.0">Black</text>
            <text id="template-version" fill="#505050" text-anchor="end" x="785.0" y="575.0">Template v.3.0</text>
            <a href="https://wangchujiang.com/#/app">
                <text fill="#505050" text-anchor="end" x="785.0" y="590.0">https://wangchujiang.com/#/app</text>
            </a>
        </g>
    </g>
    <g id="Guides" stroke="rgb(39, 170, 225)" stroke-width="0.5">
        <path id="Capline-S" d="M18,76 l800,0" />
        <path id="H-reference" d="M85,145.755 L87.685,145.755 L113.369,79.287 L114.052,79.287 L114.052,76 L112.148,76 L85,145.755 Z M95.693,121.536 L130.996,121.536 L130.263,119.313 L96.474,119.313 L95.693,121.536 Z M139.15,145.755 L141.787,145.755 L114.638,76 L113.466,76 L113.466,79.287 L139.15,145.755 Z" stroke="none" />
        <path id="Baseline-S" d="M18,146 l800,0" />
        <path id="left-margin-Ultralight-S" d="M211,56 l0,110" />
        <path id="right-margin-Ultralight-S" d="M319,56 l0,110" />
        <path id="left-margin-Regular-S" d="M411,56 l0,110" />
        <path id="right-margin-Regular-S" d="M519,56 l0,110" />
        <path id="left-margin-Black-S" d="M611,56 l0,110" />
        <path id="right-margin-Black-S" d="M719,56 l0,110" />
        <path id="Capline-M" d="M18,276 l800,0" />
        <path id="Baseline-M" d="M18,346 l800,0" />
        <path id="Capline-L" d="M18,476 l800,0" />
        <path id="Baseline-L" d="M18,546 l800,0" />
    </g>
    <g id="Symbols">
        <g id="Ultralight-S">
            <path d="M231.738,80.163 C230.453,80.163 229.229,80.377 228.067,80.806 C225.986,81.54 224.273,82.855 222.927,84.752 C221.642,86.588 221,88.637 221,90.901 L221,131.099 C221,134.036 222.04,136.575 224.12,138.716 C226.262,140.796 228.801,141.837 231.738,141.837 C234.736,141.837 237.275,140.796 239.355,138.716 C241.496,136.575 242.567,134.036 242.567,131.099 L242.567,123.789 C242.59,122.206 244.221,122.621 245.045,123.789 C246.589,126.462 249.862,128.758 253.672,128.745 C257.482,128.732 260.647,126.848 262.299,123.789 C262.925,123.051 264.688,121.794 264.869,123.789 L264.869,131.099 C264.869,134.036 265.909,136.575 267.989,138.716 C270.13,140.796 272.67,141.837 275.607,141.837 C278.605,141.837 281.144,140.796 283.224,138.716 C285.365,136.575 286.436,134.036 286.436,131.099 L286.436,90.901 C286.436,88.637 285.763,86.588 284.417,84.752 C283.132,82.855 281.45,81.54 279.369,80.806 C278.146,80.377 276.922,80.163 275.698,80.163 C272.394,80.163 269.611,81.448 267.347,84.018 L256.45,96.771 C256.205,96.955 255.394,98.358 253.672,98.358 C251.95,98.358 251.231,96.955 250.986,96.771 L239.998,84.018 C237.795,81.448 235.042,80.163 231.738,80.163 Z M299.639,80.163 C297.069,80.163 294.867,81.081 293.031,82.917 C291.257,84.691 290.37,86.863 290.37,89.433 C290.37,92.002 291.257,94.205 293.031,96.04 C294.867,97.815 297.069,98.702 299.639,98.702 C302.209,98.702 304.411,97.815 306.247,96.04 C308.082,94.205 309,92.002 309,89.433 C309,86.863 308.082,84.691 306.247,82.917 C304.411,81.081 302.209,80.163 299.639,80.163 Z M299.73,100.537 C297.161,100.537 294.958,101.455 293.123,103.291 C291.287,105.126 290.37,107.329 290.37,109.899 L290.37,132.567 C290.37,135.137 291.287,137.34 293.123,139.175 C294.958,140.949 297.161,141.837 299.73,141.837 C302.3,141.837 304.472,140.949 306.247,139.175 C308.082,137.34 309,135.137 309,132.567 L309,109.899 C309,107.329 308.082,105.126 306.247,103.291 C304.472,101.455 302.3,100.537 299.73,100.537 Z" />
        </g>
        <g id="Regular-S">
            <path d="M431.738,80.163 C430.453,80.163 429.229,80.377 428.067,80.806 C425.986,81.54 424.273,82.855 422.927,84.752 C421.642,86.588 421,88.637 421,90.901 L421,131.099 C421,134.036 422.04,136.575 424.12,138.716 C426.262,140.796 428.801,141.837 431.738,141.837 C434.736,141.837 437.275,140.796 439.355,138.716 C441.496,136.575 442.567,134.036 442.567,131.099 L442.567,123.789 C442.59,122.206 444.221,122.621 445.045,123.789 C446.589,126.462 449.862,128.758 453.672,128.745 C457.482,128.732 460.647,126.848 462.299,123.789 C462.925,123.051 464.688,121.794 464.869,123.789 L464.869,131.099 C464.869,134.036 465.909,136.575 467.989,138.716 C470.13,140.796 472.67,141.837 475.607,141.837 C478.605,141.837 481.144,140.796 483.224,138.716 C485.365,136.575 486.436,134.036 486.436,131.099 L486.436,90.901 C486.436,88.637 485.763,86.588 484.417,84.752 C483.132,82.855 481.45,81.54 479.369,80.806 C478.146,80.377 476.922,80.163 475.698,80.163 C472.394,80.163 469.611,81.448 467.347,84.018 L456.45,96.771 C456.205,96.955 455.394,98.358 453.672,98.358 C451.95,98.358 451.231,96.955 450.986,96.771 L439.998,84.018 C437.795,81.448 435.042,80.163 431.738,80.163 Z M499.639,80.163 C497.069,80.163 494.867,81.081 493.031,82.917 C491.257,84.691 490.37,86.863 490.37,89.433 C490.37,92.002 491.257,94.205 493.031,96.04 C494.867,97.815 497.069,98.702 499.639,98.702 C502.209,98.702 504.411,97.815 506.247,96.04 C508.082,94.205 509,92.002 509,89.433 C509,86.863 508.082,84.691 506.247,82.917 C504.411,81.081 502.209,80.163 499.639,80.163 Z M499.73,100.537 C497.161,100.537 494.958,101.455 493.123,103.291 C491.287,105.126 490.37,107.329 490.37,109.899 L490.37,132.567 C490.37,135.137 491.287,137.34 493.123,139.175 C494.958,140.949 497.161,141.837 499.73,141.837 C502.3,141.837 504.472,140.949 506.247,139.175 C508.082,137.34 509,135.137 509,132.567 L509,109.899 C509,107.329 508.082,105.126 506.247,103.291 C504.472,101.455 502.3,100.537 499.73,100.537 Z" />
        </g>
        <g id="Black-S">
            <path d="M631.738,80.163 C630.453,80.163 629.229,80.377 628.067,80.806 C625.986,81.54 624.273,82.855 622.927,84.752 C621.642,86.588 621,88.637 621,90.901 L621,131.099 C621,134.036 622.04,136.575 624.12,138.716 C626.262,140.796 628.801,141.837 631.738,141.837 C634.736,141.837 637.275,140.796 639.355,138.716 C641.496,136.575 642.567,134.036 642.567,131.099 L642.567,123.789 C642.59,122.206 644.221,122.621 645.045,123.789 C646.589,126.462 649.862,128.758 653.672,128.745 C657.482,128.732 660.647,126.848 662.299,123.789 C662.925,123.051 664.688,121.794 664.869,123.789 L664.869,131.099 C664.869,134.036 665.909,136.575 667.989,138.716 C670.13,140.796 672.67,141.837 675.607,141.837 C678.605,141.837 681.144,140.796 683.224,138.716 C685.365,136.575 686.436,134.036 686.436,131.099 L686.436,90.901 C686.436,88.637 685.763,86.588 684.417,84.752 C683.132,82.855 681.45,81.54 679.369,80.806 C678.146,80.377 676.922,80.163 675.698,80.163 C672.394,80.163 669.611,81.448 667.347,84.018 L656.45,96.771 C656.205,96.955 655.394,98.358 653.672,98.358 C651.95,98.358 651.231,96.955 650.986,96.771 L639.998,84.018 C637.795,81.448 635.042,80.163 631.738,80.163 Z M699.639,80.163 C697.069,80.163 694.867,81.081 693.031,82.917 C691.257,84.691 690.37,86.863 690.37,89.433 C690.37,92.002 691.257,94.205 693.031,96.04 C694.867,97.815 697.069,98.702 699.639,98.702 C702.209,98.702 704.411,97.815 706.247,96.04 C708.082,94.205 709,92.002 709,89.433 C709,86.863 708.082,84.691 706.247,82.917 C704.411,81.081 702.209,80.163 699.639,80.163 Z M699.73,100.537 C697.161,100.537 694.958,101.455 693.123,103.291 C691.287,105.126 690.37,107.329 690.37,109.899 L690.37,132.567 C690.37,135.137 691.287,137.34 693.123,139.175 C694.958,140.949 697.161,141.837 699.73,141.837 C702.3,141.837 704.472,140.949 706.247,139.175 C708.082,137.34 709,135.137 709,132.567 L709,109.899 C709,107.329 708.082,105.126 706.247,103.291 C704.472,101.455 702.3,100.537 699.73,100.537 Z" />
        </g>
    </g>
</svg>