<svg width="345" height="120" viewBox="0 0 345 120" fill="none" xmlns="http://www.w3.org/2000/svg">
<path d="M106.32 56.4V106.38H119.55V79.3H153.88V66.7H119.55V56.4C119.55 51.54 123.51 47.58 128.37 47.58H159.24V34.98H127.74C115.93 34.98 106.32 44.59 106.32 56.4Z" fill="black"/>
<path d="M182.491 34.99H169.261V106.39H182.491V34.99Z" fill="black"/>
<path d="M222.45 51.5801H197.88V64.1801H221.82C224.51 64.1801 226.93 65.3901 228.55 67.3001L206.53 72.0501C198.54 73.7601 192.84 80.7701 192.84 88.9401C192.84 98.5601 200.67 106.39 210.29 106.39H222.45C234.26 106.39 243.87 96.7801 243.87 84.9701V73.0001C243.87 61.1901 234.26 51.5801 222.45 51.5801ZM230.64 84.9701C230.64 89.8301 226.68 93.7901 221.82 93.7901H210.92C208.25 93.7901 206.07 91.6201 206.07 88.9401C206.07 86.6701 207.68 84.6801 209.9 84.2001L230.64 79.7401V84.9701Z" fill="black"/>
<path d="M344.43 72.8501C344.43 61.0401 334.82 51.5801 323.01 51.5801H314.82C303.01 51.5801 293.4 61.1901 293.4 73.0001V84.9701C293.4 96.7801 303.01 106.39 314.82 106.39H339.39V93.7901H315.45C312.61 93.7901 310.08 92.4401 308.47 90.3501L334.82 84.7201C340.39 83.5401 344.43 78.5401 344.43 72.8501ZM306.64 77.8601V73.0001C306.64 68.1401 310.6 64.1801 315.46 64.1801H322.39C327.13 64.1801 331 67.9301 331.2 72.6301L306.64 77.8601Z" fill="black"/>
<path d="M254.23 73.0001V106.39H267.46V73.0001C267.46 68.1401 271.42 64.1801 276.28 64.1801H286.7V51.5801H275.65C263.84 51.5801 254.23 61.1901 254.23 73.0001Z" fill="black"/>
<path d="M50.0796 89.59C36.2096 97.7 39.0896 112.45 41.0796 119.6C42.0996 119.6 43.1396 119.57 44.1896 119.49C59.8696 118.39 75.1196 105.65 78.9596 88.45C80.3896 82.05 80.0596 75.15 78.3396 68C76.1596 80.02 65.2496 80.7 50.0696 89.58L50.0796 89.59Z" fill="url(#paint0_linear_81_136)"/>
<path d="M4.46009 62.6101C2.13009 67.7601 1.62009 70.4201 0.990089 74.2601C-2.39991 94.7601 11.9201 116.64 35.8801 119.34C22.7301 103.64 15.7901 83.7501 38.8301 56.5201C53.3701 39.3401 53.8901 22.7101 41.6401 0.570068C42.6901 31.7201 6.45009 41.2201 11.9701 73.9901C7.59009 71.8501 4.46009 62.6301 4.46009 62.6301V62.6101Z" fill="url(#paint1_linear_81_136)"/>
<path d="M41.0902 119.61C39.1002 112.46 36.2102 97.71 50.0902 89.59C65.2702 80.72 76.1902 80.05 78.3602 68.02C80.0202 92.87 45.7802 90.88 41.0902 119.61Z" fill="url(#paint2_linear_81_136)"/>
<path d="M33.3304 96.3801C38.1904 78.4001 67.4604 74.4401 72.0904 60.3901C75.3104 50.6401 69.5904 38.7901 63.9404 33.3701C69.8704 59.7701 25.0704 66.5201 33.3204 96.3801H33.3304Z" fill="url(#paint3_linear_81_136)"/>
<path d="M11.9696 73.94C11.9696 73.94 11.9696 73.96 11.9796 73.97C16.4796 49.85 53.3296 46.8701 49.5596 20.9601C48.3496 14.6201 45.6996 7.89005 41.6396 0.550049C42.6796 31.69 6.4696 41.2 11.9596 73.94H11.9696Z" fill="url(#paint4_linear_81_136)"/>
<path d="M35.8799 119.33C11.9299 116.63 -2.39014 94.7501 0.999864 74.2501C1.63986 70.4001 2.14987 67.7601 4.47987 62.6001C4.47987 62.6001 7.61986 71.8201 11.9899 73.9601C9.71986 86.1301 13.1399 107.27 35.8899 119.33H35.8799Z" fill="url(#paint5_linear_81_136)"/>
<defs>
<linearGradient id="paint0_linear_81_136" x1="59.6296" y1="92.66" x2="59.6296" y2="121.51" gradientUnits="userSpaceOnUse">
<stop stop-color="#02EBD2"/>
<stop offset="0.39" stop-color="#01DBC4"/>
<stop offset="1" stop-color="#00BBA9"/>
</linearGradient>
<linearGradient id="paint1_linear_81_136" x1="19.8101" y1="91.6001" x2="44.9601" y2="48.0401" gradientUnits="userSpaceOnUse">
<stop stop-color="#02EBD2"/>
<stop offset="0.39" stop-color="#01DBC4"/>
<stop offset="1" stop-color="#00BBA9"/>
</linearGradient>
<linearGradient id="paint2_linear_81_136" x1="58.9102" y1="98.72" x2="58.9102" y2="84.49" gradientUnits="userSpaceOnUse">
<stop stop-color="#02EBD2"/>
<stop offset="0.39" stop-color="#01DBC4"/>
<stop offset="1" stop-color="#00BBA9"/>
</linearGradient>
<linearGradient id="paint3_linear_81_136" x1="52.6704" y1="57.2601" x2="52.6704" y2="89.3101" gradientUnits="userSpaceOnUse">
<stop stop-color="#02EBD2"/>
<stop offset="0.39" stop-color="#01DBC4"/>
<stop offset="1" stop-color="#00BBA9"/>
</linearGradient>
<linearGradient id="paint4_linear_81_136" x1="30.6196" y1="30.38" x2="30.6196" y2="113.6" gradientUnits="userSpaceOnUse">
<stop stop-color="#02EBD2"/>
<stop offset="0.39" stop-color="#01DBC4"/>
<stop offset="1" stop-color="#00BBA9"/>
</linearGradient>
<linearGradient id="paint5_linear_81_136" x1="18.1899" y1="32.3301" x2="18.1899" y2="111.83" gradientUnits="userSpaceOnUse">
<stop stop-color="#02EBD2"/>
<stop offset="0.39" stop-color="#01DBC4"/>
<stop offset="1" stop-color="#00BBA9"/>
</linearGradient>
</defs>
</svg>
