<svg width="239" height="72" viewBox="0 0 239 72" fill="none" xmlns="http://www.w3.org/2000/svg">
<path d="M0 21.42V71.4H13.23V44.32H47.56V31.72H13.23V21.42C13.23 16.56 17.19 12.6 22.05 12.6H52.92V0H21.42C9.61 0 0 9.61 0 21.42Z" fill="black"/>
<path d="M76.1704 0.00976562H62.9404V71.4098H76.1704V0.00976562Z" fill="black"/>
<path d="M116.13 16.6001H91.5595V29.2001H115.5C118.19 29.2001 120.61 30.4101 122.23 32.3201L100.21 37.0701C92.2195 38.7801 86.5195 45.7901 86.5195 53.9601C86.5195 63.5801 94.3495 71.4101 103.97 71.4101H116.13C127.94 71.4101 137.55 61.8001 137.55 49.9901V38.0201C137.55 26.2101 127.94 16.6001 116.13 16.6001ZM124.32 49.9901C124.32 54.8501 120.36 58.8101 115.5 58.8101H104.6C101.93 58.8101 99.7495 56.6401 99.7495 53.9601C99.7495 51.6901 101.36 49.7001 103.58 49.2201L124.32 44.7601V49.9901Z" fill="black"/>
<path d="M238.11 37.8701C238.11 26.0601 228.5 16.6001 216.69 16.6001H208.5C196.69 16.6001 187.08 26.2101 187.08 38.0201V49.9901C187.08 61.8001 196.69 71.4101 208.5 71.4101H233.07V58.8101H209.13C206.29 58.8101 203.76 57.4601 202.15 55.3701L228.5 49.7401C234.07 48.5601 238.11 43.5601 238.11 37.8701ZM200.32 42.8801V38.0201C200.32 33.1601 204.28 29.2001 209.14 29.2001H216.07C220.81 29.2001 224.68 32.9501 224.88 37.6501L200.32 42.8801Z" fill="black"/>
<path d="M147.91 38.0201V71.4101H161.14V38.0201C161.14 33.1601 165.1 29.2001 169.96 29.2001H180.38V16.6001H169.33C157.52 16.6001 147.91 26.2101 147.91 38.0201Z" fill="black"/>
</svg>
